<?xml version="1.0" encoding="iso-8859-1"?>
<!-- Generator: Adobe Illustrator 19.0.0, SVG Export Plug-In . SVG Version: 6.00 Build 0)  -->
<svg xmlns="http://www.w3.org/2000/svg" xmlns:xlink="http://www.w3.org/1999/xlink" version="1.1" id="Layer_1" x="0px" y="0px" viewBox="0 0 469.333 469.333" style="enable-background:new 0 0 469.333 469.333;" xml:space="preserve" width="512px" height="512px">
<g>
	<g>
		<g>
			<path d="M426.667,0H85.333C69.608,0,56,8.642,48.6,21.333h356.733C428.865,21.333,448,40.469,448,64v356.733     c12.691-7.4,21.333-21.008,21.333-36.733V42.667C469.333,19.135,450.198,0,426.667,0z" fill="#FFFFFF"/>
			<path d="M384,42.667H42.667C19.135,42.667,0,61.802,0,85.333v341.333c0,23.531,19.135,42.667,42.667,42.667H384     c23.531,0,42.667-19.135,42.667-42.667V85.333C426.667,61.802,407.531,42.667,384,42.667z M213.333,426.667     c-94.104,0-170.667-76.563-170.667-170.667S119.229,85.333,213.333,85.333S384,161.896,384,256S307.437,426.667,213.333,426.667z     " fill="#FFFFFF"/>
			<path d="M213.333,192c-35.292,0-64,28.708-64,64c0,35.292,28.708,64,64,64c35.292,0,64-28.708,64-64     C277.333,220.708,248.625,192,213.333,192z M213.333,277.333C201.573,277.333,192,267.76,192,256     c0-11.76,9.573-21.333,21.333-21.333c11.76,0,21.333,9.573,21.333,21.333C234.667,267.76,225.094,277.333,213.333,277.333z" fill="#FFFFFF"/>
			<path d="M213.354,149.333c5.885,0,10.667-4.771,10.667-10.667c0-5.885-4.771-10.667-10.667-10.667c-0.01,0-0.021,0-0.042,0     c-34.177,0-66.313,13.313-90.49,37.49c-4.167,4.167-4.167,10.917,0,15.083c2.083,2.083,4.813,3.125,7.542,3.125     c2.729,0,5.458-1.042,7.542-3.125c20.146-20.146,46.927-31.24,75.406-31.24C213.323,149.333,213.333,149.333,213.354,149.333z" fill="#FFFFFF"/>
		</g>
	</g>
</g>
<g>
</g>
<g>
</g>
<g>
</g>
<g>
</g>
<g>
</g>
<g>
</g>
<g>
</g>
<g>
</g>
<g>
</g>
<g>
</g>
<g>
</g>
<g>
</g>
<g>
</g>
<g>
</g>
<g>
</g>
</svg>
